<svg xmlns="http://www.w3.org/2000/svg" viewBox="0 0 200 200" width="200" height="200">
  <defs>
    <linearGradient id="sG" x1="0%" y1="0%" x2="100%" y2="0%">
      <stop offset="0%" stop-color="#80E27E" stop-opacity="0"/>
      <stop offset="70%" stop-color="#80E27E" stop-opacity="1"/>
    </linearGradient>
    <linearGradient id="sY" x1="0%" y1="0%" x2="100%" y2="0%">
      <stop offset="0%" stop-color="#FFEA00" stop-opacity="0"/>
      <stop offset="70%" stop-color="#FFEA00" stop-opacity="1"/>
    </linearGradient>
    <linearGradient id="sB" x1="0%" y1="0%" x2="100%" y2="0%">
      <stop offset="0%" stop-color="#29B6F6" stop-opacity="0"/>
      <stop offset="70%" stop-color="#29B6F6" stop-opacity="1"/>
    </linearGradient>
  </defs>

  <!-- Dark background squircle -->
  <rect x="0" y="0" width="200" height="200" rx="44" fill="#263238"/>

  <!-- Portal dark interior -->
  <rect x="60" y="36" width="80" height="128" fill="#0d1416" rx="8"/>

  <!-- Left bracket [ -->
  <path d="M 74 36 L 50 36 L 50 164 L 74 164" fill="none" stroke="#80E27E" stroke-width="10" stroke-linecap="round" stroke-linejoin="round"/>

  <!-- Right bracket ] -->
  <path d="M 126 36 L 150 36 L 150 164 L 126 164" fill="none" stroke="#80E27E" stroke-width="10" stroke-linecap="round" stroke-linejoin="round"/>

  <!-- Data streams -->
  <line x1="62" y1="66" x2="130" y2="66" stroke="url(#sG)" stroke-width="6" stroke-linecap="round"/>
  <circle cx="140" cy="66" r="4" fill="#80E27E"/>

  <line x1="72" y1="100" x2="110" y2="100" stroke="url(#sY)" stroke-width="6" stroke-linecap="round"/>
  <circle cx="120" cy="100" r="4" fill="#FFEA00"/>

  <line x1="66" y1="134" x2="122" y2="134" stroke="url(#sB)" stroke-width="6" stroke-linecap="round"/>
  <circle cx="132" cy="134" r="4" fill="#29B6F6"/>
  <circle cx="140" cy="134" r="2.5" fill="#29B6F6"/>
</svg>